<svg xmlns="http://www.w3.org/2000/svg" version="1.1" xmlns:xlink="http://www.w3.org/1999/xlink" xmlns:svgjs="http://svgjs.dev/svgjs" width="1000" height="1000" viewBox="0 0 1000 1000"><rect width="1000" height="1000" fill="#ffffff"></rect><g transform="matrix(0.7,0,0,0.7,149.57575757575756,282.1265587044535)"><svg viewBox="0 0 396 247" data-background-color="#ffffff" preserveAspectRatio="xMidYMid meet" height="623" width="1000" xmlns="http://www.w3.org/2000/svg" xmlns:xlink="http://www.w3.org/1999/xlink"><g id="tight-bounds" transform="matrix(1,0,0,1,0.2400000000000091,-0.09999999999999432)"><svg viewBox="0 0 395.52 247.2" height="247.2" width="395.52"><g><svg></svg></g><g><svg viewBox="0 0 395.52 247.2" height="247.2" width="395.52"><g transform="matrix(1,0,0,1,39.55199999999999,93.1303111111111)"><svg viewBox="0 0 316.416 60.93937777777778" height="60.93937777777778" width="316.416"><g><svg viewBox="0 0 316.416 60.93937777777778" height="60.93937777777778" width="316.416"><g><svg viewBox="0 0 316.416 60.93937777777778" height="60.93937777777778" width="316.416"><g id="textblocktransform"><svg viewBox="0 0 316.416 60.93937777777778" height="60.93937777777778" width="316.416" id="textblock"><g><svg viewBox="0 0 316.416 60.93937777777778" height="60.93937777777778" width="316.416"><g transform="matrix(1,0,0,1,0,0)"><svg width="316.416" viewBox="1.7 -35.9 188.99 36.4" height="60.93937777777778" data-palette-color="#2ecc40"><g class="undefined-text-0" data-fill-palette-color="primary" id="text-0"><path d="M19.7 0.5L19.7 0.5Q16.25 0.5 13.03-0.3 9.8-1.1 7.25-3.1 4.7-5.1 3.2-8.65 1.7-12.2 1.7-17.7L1.7-17.7Q1.7-22.65 3.15-26.13 4.6-29.6 7.1-31.75 9.6-33.9 12.85-34.9 16.1-35.9 19.7-35.9L19.7-35.9Q22.25-35.9 24.68-35.5 27.1-35.1 28.2-34.6L28.2-34.6 34.25-29.55 29.25-21.3 19.7-25.7Q18-25.7 16.53-24.78 15.05-23.85 14.13-22.08 13.2-20.3 13.2-17.7L13.2-17.7Q13.2-14.4 14.23-12.63 15.25-10.85 17.18-10.2 19.1-9.55 21.75-9.55L21.75-9.55Q24.3-9.55 26.58-10.08 28.85-10.6 30.6-11.3 32.35-12 33.25-12.5L33.25-12.5 33.25-2.5Q32.25-2 30.43-1.28 28.6-0.55 25.93-0.03 23.25 0.5 19.7 0.5ZM50.3 0L39.25 0 39.25-27.4 38.75-32.4 39.25-35.4 50.3-35.4 50.3 0ZM79.59 0L64.55 0 55.55-27.45 54.05-32.4 54.05-35.4 65.65-35.4 71.65-10.1 72.65-10.1 78.59-35.4 90.05-35.4 90.05-32.4 88.55-27.45 79.59 0ZM105.34 0L94.29 0 94.29-27.4 93.79-32.4 94.29-35.4 105.34-35.4 105.34 0ZM123.34 0L112.34 0 112.34-27.3 111.34-32.4 112.34-35.4 138.09-35.4 140.59-33.9 137.29-25.4 132.79-25.9 122.84-25.9 123.34-21.9 135.79-21.9 135.79-13.65 128.74-13.65 123.34-14.15 123.34-7.95 123.89-2.95 123.34 0ZM155.44 0L144.39 0 144.39-27.4 143.89-32.4 144.39-35.4 155.44-35.4 155.44 0ZM180.44 0L169.44 0 169.44-25.85 159.44-25.35 159.44-35.4 190.69-35.4 190.69-25.35 180.44-25.85 180.44-8 180.99-3 180.44 0Z" fill="#2ecc40" data-fill-palette-color="primary"></path></g></svg></g></svg></g></svg></g></svg></g></svg></g></svg></g><g mask="url(&quot;#632b21be-d9df-4d72-bd91-2c4d554a317a&quot;)"><g transform="matrix(2.4519856310752948, 0, 0, 2.4519856310752948, 85.78619485991263, 1)"><svg xmlns="http://www.w3.org/2000/svg" xmlns:xlink="http://www.w3.org/1999/xlink" version="1.1" x="0" y="0" viewBox="0 0 91.33316583995015 100.00058601178257" enable-background="new 0 0 91.333 100" xml:space="preserve" width="91.33316583995015" height="100.00058601178257" class="icon-none" data-fill-palette-color="accent" id="none"><path d="M81.502 59.479c-14.446 17.343-29.439 7.493-34.332 3.457 3.772-4.121 5.505-6.361 12.054-11.758 6.771 2.767 18.887-2.487 18.887-2.487-8.151 2.136-14.382 0.925-16.595 0.339 0.475-0.371 8.516-6.191 10.95-9.557 6.731 0.208 12.291-5.573 12.291-5.573-0.182-0.156-3.587 2.454-10.025 2.767 6.666-9.792 6.367-18.802 6.367-18.802s-2.461 8.223-8.724 17.239c-1.283-6.399 0.352-10.755 0.169-10.898 0 0-4.362 7.187-2.351 13.795-3.424 3.913-8.821 7.292-10.813 8.808-0.156-0.41-2.239-7.239-0.215-17.324 0 0-5.488 12.682-2.051 19.257-4.205 3.236-5.332 4.03-12.356 11.881-15.905-11.907-2.249-33.203 9.661-38.164C66.672 17.35 71.776 18.379 83.006 0 95.304 18.216 93.287 45.338 81.502 59.479z" fill="#2ecc40" data-fill-palette-color="accent"></path><path d="M13.623 57.629c7.236 3.308 12.252 7.8 15.699 12.097 0.042-0.124 0.095-0.228 0.134-0.371C36.005 45.781 0 49.062 0 49.062s4.974 7.656 7.747 16.003c3.207 9.674 16.312 17.714 21.022 6.224C25.368 66.711 20.504 61.705 13.623 57.629z" fill="#2ecc40" data-fill-palette-color="accent"></path><path d="M47.17 62.936c-0.042-0.053-2.487-2.24-2.448-2.292-6.172 6.797-8.578 12.604-9.164 20.006-0.934-2.545-2.802-6.621-6.237-10.924-0.163 0.566-0.352 1.074-0.553 1.562 3.659 4.928 5.075 11.641 5.908 13.841 0 6.146 0.674 9.219 1.214 14.349 0 0 3.308 1.953 4.229-1.692C38.251 94.699 36.418 73.456 47.17 62.936z" fill="#2ecc40" data-fill-palette-color="accent"></path></svg></g></g></svg></g><defs><mask id="632b21be-d9df-4d72-bd91-2c4d554a317a"><rect width="640" height="400" fill="white"></rect><rect width="348.05760000000004" height="89.7120268743111" fill="black" y="78.74398656284444" x="23.731199999999973" id="transform-me"></rect></mask></defs></svg><rect width="395.52" height="247.2" fill="none" stroke="none" visibility="hidden"></rect></g></svg></g></svg>